<svg width="16" height="16" viewBox="0 0 16 16" fill="none" xmlns="http://www.w3.org/2000/svg">
<g clip-path="url(#clip0_4_552)">
<path d="M3.26306 12.7369L0.525813 9.99968C0.201125 9.66687 0 9.19631 0 8.73637C0 8.52343 0.12 8.19056 0.210562 7.99999L2.73725 2.73724L3.26306 12.7369Z" fill="#01579B"/>
<path d="M12.6323 3.26306L9.89503 0.525813C9.65628 0.285812 9.15865 0 8.73753 0C8.37528 0 8.02003 0.0729375 7.79065 0.210562L2.73846 2.73725L12.6323 3.26306ZM6.52615 16H13.1581V13.1581L8.21059 11.5783L3.68421 13.1581L6.52615 16Z" fill="#40C4FF"/>
<path d="M2.73724 11.2631C2.73724 12.1076 2.84312 12.3147 3.26306 12.7369L3.68418 13.1581H13.1581L8.52699 7.89531L2.73724 2.73718L2.73724 11.2631Z" fill="#29B6F6"/>
<path d="M11.1584 2.73608H2.73724L13.1581 13.1569H16V6.63083L12.6311 3.2619C12.1582 2.78783 11.7382 2.73608 11.1584 2.73608V2.73608Z" fill="#01579B"/>
<path opacity="0.2" d="M3.36895 12.8416C2.94782 12.4194 2.84313 12.0029 2.84313 11.2631V2.84187L2.73845 2.73718V11.263C2.7372 12.0029 2.7372 12.2076 3.36895 12.8416L3.6842 13.1568L3.36895 12.8416Z" fill="white"/>
<path opacity="0.2" d="M15.8953 6.52612V13.0522H13.0533L13.158 13.1581H16V6.63081L15.8953 6.52612Z" fill="#263238"/>
<path opacity="0.2" d="M12.6323 3.26306C12.11 2.74074 11.683 2.73724 11.0537 2.73724H2.73846L2.84315 2.84193H11.0537C11.3678 2.84193 12.1606 2.78899 12.6323 3.26306Z" fill="white"/>
<path opacity="0.2" d="M15.8953 6.52612L12.6322 3.263L9.89497 0.525875C9.65622 0.285812 9.1586 0 8.73747 0C8.37522 0 8.01997 0.0729375 7.7906 0.210562L2.73841 2.73725L0.211724 8C0.121099 8.19175 0.00109863 8.52462 0.00109863 8.73637C0.00109863 9.19631 0.203474 9.66562 0.526974 9.99969L3.04891 12.5041C3.10891 12.5781 3.17954 12.6534 3.26304 12.7369L3.36772 12.8416L3.68297 13.1569L6.42022 15.8941L6.52491 15.9988H13.1556V13.1569H15.9975V6.63075L15.8953 6.52612Z" fill="url(#paint0_radial_4_552)"/>
</g>
<defs>
<radialGradient id="paint0_radial_4_552" cx="0" cy="0" r="1" gradientUnits="userSpaceOnUse" gradientTransform="translate(7.99932 7.99853) scale(7.99886 7.99885)">
<stop stop-color="white" stop-opacity="0.1"/>
<stop offset="1" stop-color="white" stop-opacity="0"/>
</radialGradient>
<clipPath id="clip0_4_552">
<rect width="16" height="16" fill="white"/>
</clipPath>
</defs>
</svg>
