<svg width="22" height="22" viewBox="0 0 22 22" fill="none" xmlns="http://www.w3.org/2000/svg">
<path d="M11.7608 1.99834C11.2775 1.7779 10.7224 1.7779 10.2392 1.99834L2.38332 5.57334C2.05096 5.71988 1.83649 6.04885 1.83649 6.41209C1.83649 6.77532 2.05096 7.10429 2.38332 7.25084L10.2483 10.835C10.7316 11.0554 11.2867 11.0554 11.77 10.835L19.635 7.26C19.9673 7.11345 20.1818 6.78448 20.1818 6.42125C20.1818 6.05802 19.9673 5.72905 19.635 5.5825L11.7608 1.99834" stroke="#A0A0A0" stroke-width="1.83333" stroke-linecap="round" stroke-linejoin="round"/>
<path d="M1.83332 11C1.83243 11.358 2.04007 11.6838 2.36498 11.8342L10.2483 15.4183C10.729 15.636 11.2801 15.636 11.7608 15.4183L19.6258 11.8433C19.9574 11.6943 20.1695 11.3635 20.1666 11" stroke="#A0A0A0" stroke-width="1.83333" stroke-linecap="round" stroke-linejoin="round"/>
<path d="M1.83332 15.5833C1.83243 15.9413 2.04007 16.2671 2.36498 16.4175L10.2483 20.0016C10.729 20.2193 11.2801 20.2193 11.7608 20.0016L19.6258 16.4266C19.9574 16.2776 20.1695 15.9468 20.1666 15.5833" stroke="#A0A0A0" stroke-width="1.83333" stroke-linecap="round" stroke-linejoin="round"/>
</svg>
